<svg width="33" height="33" viewBox="0 0 33 33" fill="none" xmlns="http://www.w3.org/2000/svg">
<path fill-rule="evenodd" clip-rule="evenodd" d="M4.09403 7.0062C4.4691 6.63112 4.97781 6.42041 5.50824 6.42041H27.5082C28.0387 6.42041 28.5474 6.63112 28.9225 7.0062C29.2975 7.38127 29.5082 7.88998 29.5082 8.42041V24.4204C29.5082 24.9508 29.2975 25.4595 28.9225 25.8346C28.5474 26.2097 28.0387 26.4204 27.5082 26.4204H10.821C10.827 26.4204 10.8328 26.4182 10.8373 26.4143L10.821 26.3954L10.1832 25.6579L10.8246 26.4252L6.78709 29.8002L6.78327 29.8033C6.4919 30.0444 6.13813 30.198 5.76301 30.2462C5.38789 30.2944 5.0068 30.2352 4.66395 30.0756C4.3211 29.9159 4.03055 29.6623 3.82599 29.3442C3.62144 29.0261 3.51127 28.6565 3.50827 28.2783L3.50821 28.2704L3.50824 8.42041C3.50824 7.88998 3.71895 7.38127 4.09403 7.0062ZM9.53653 24.8951C9.89416 24.589 10.3495 24.4205 10.8205 24.4204H27.5082V8.42041L5.50824 8.42041V28.2624L9.53653 24.8951Z" fill="#F8F7FF"/>
<path d="M16.5082 17.9204C17.3367 17.9204 18.0082 17.2488 18.0082 16.4204C18.0082 15.592 17.3367 14.9204 16.5082 14.9204C15.6798 14.9204 15.0082 15.592 15.0082 16.4204C15.0082 17.2488 15.6798 17.9204 16.5082 17.9204Z" fill="#F8F7FF"/>
<path d="M10.5082 17.9204C11.3367 17.9204 12.0082 17.2488 12.0082 16.4204C12.0082 15.592 11.3367 14.9204 10.5082 14.9204C9.67981 14.9204 9.00824 15.592 9.00824 16.4204C9.00824 17.2488 9.67981 17.9204 10.5082 17.9204Z" fill="#F8F7FF"/>
<path d="M22.5082 17.9204C23.3367 17.9204 24.0082 17.2488 24.0082 16.4204C24.0082 15.592 23.3367 14.9204 22.5082 14.9204C21.6798 14.9204 21.0082 15.592 21.0082 16.4204C21.0082 17.2488 21.6798 17.9204 22.5082 17.9204Z" fill="#F8F7FF"/>
</svg>
