<svg width="50" height="50" viewBox="0 0 50 50" fill="none" xmlns="http://www.w3.org/2000/svg">
<path fill-rule="evenodd" clip-rule="evenodd" d="M24.9983 6.25C14.6446 6.25 6.25 14.6446 6.25 25.0006C6.25 33.2847 11.6219 40.3118 19.0727 42.7923C20.0108 42.9638 20.3526 42.3848 20.3526 41.8876C20.3526 41.4433 20.3365 40.2635 20.3273 38.6992C15.1119 39.8318 14.0115 36.1853 14.0115 36.1853C13.1586 34.0202 11.9293 33.4435 11.9293 33.4435C10.2269 32.2798 12.0582 32.3028 12.0582 32.3028C13.9402 32.4363 14.9301 34.2354 14.9301 34.2354C16.6025 37.1004 19.319 36.2728 20.3872 35.794C20.5575 34.5819 21.041 33.7554 21.5774 33.287C17.414 32.8139 13.0366 31.2047 13.0366 24.0199C13.0366 21.9733 13.7675 20.2997 14.9669 18.9886C14.7735 18.5144 14.1301 16.6083 15.1499 14.0265C15.1499 14.0265 16.7245 13.5223 20.3066 15.9487C21.8018 15.5332 23.4064 15.3249 25.0006 15.318C26.5925 15.3249 28.197 15.5332 29.6945 15.9487C33.2743 13.5223 34.8455 14.0265 34.8455 14.0265C35.8688 16.6083 35.2253 18.5144 35.032 18.9886C36.2337 20.2997 36.96 21.9733 36.96 24.0199C36.96 31.2231 32.5756 32.8081 28.3985 33.272C29.0718 33.851 29.6715 34.9951 29.6715 36.7447C29.6715 39.2505 29.6485 41.2729 29.6485 41.8876C29.6485 42.3895 29.9858 42.973 30.9377 42.79C38.3827 40.3049 43.75 33.2824 43.75 25.0006C43.75 14.6446 35.3543 6.25 24.9983 6.25Z" fill="#F8F7FF"/>
</svg>
