<svg width="40" height="40" viewBox="0 0 40 40" fill="none" xmlns="http://www.w3.org/2000/svg">
<path d="M37.5018 20.3887C37.5018 18.9498 37.3826 17.8998 37.1248 16.8109H20.3589V23.3053H30.2001C30.0018 24.9192 28.9303 27.3498 26.5493 28.983L26.516 29.2005L31.817 33.225L32.1843 33.2609C35.5572 30.2081 37.5018 25.7164 37.5018 20.3887" fill="#4285F4"/>
<path d="M20.3578 37.5C25.1792 37.5 29.2267 35.9443 32.1832 33.2611L26.5482 28.9831C25.0403 30.0137 23.0165 30.7332 20.3578 30.7332C15.6356 30.7332 11.6278 27.6804 10.1991 23.461L9.98964 23.4784L4.47754 27.659L4.40546 27.8554C7.34192 33.5721 13.3737 37.5 20.3578 37.5Z" fill="#34A853"/>
<path d="M10.2001 23.4611C9.82312 22.3722 9.60495 21.2054 9.60495 20C9.60495 18.7943 9.82312 17.6277 10.1803 16.5388L10.1703 16.3069L4.58909 12.0592L4.40648 12.1443C3.19622 14.5166 2.50177 17.1805 2.50177 20C2.50177 22.8194 3.19622 25.4832 4.40648 27.8554L10.2001 23.4611" fill="#FBBC05"/>
<path d="M20.3579 9.26662C23.711 9.26662 25.9729 10.6861 27.2626 11.8722L32.3023 7.05C29.2072 4.23056 25.1793 2.5 20.3579 2.5C13.3737 2.5 7.34194 6.42775 4.40546 12.1444L10.1793 16.5389C11.6278 12.3194 15.6357 9.26662 20.3579 9.26662" fill="#EB4335"/>
</svg>
