<svg width="59" height="50" viewBox="0 0 59 50" fill="none" xmlns="http://www.w3.org/2000/svg">
<g filter="url(#filter0_f_3_5670)">
<path d="M39.4367 38.083C38.8166 38.946 38.0901 39.6892 37.2687 40.2961C36.4533 40.8948 35.5779 41.3805 34.6369 41.7251C33.7046 42.0754 32.724 42.2963 31.7039 42.3935C30.6925 42.4964 29.6794 42.4766 28.6587 42.3422C27.6381 42.2079 26.6243 41.9566 25.6381 41.5777C24.646 41.2069 23.716 40.7318 22.8395 40.1465L11.8274 32.792C11.4022 32.508 11.0648 32.1732 10.798 31.7761C10.537 31.3707 10.3636 30.9508 10.2776 30.5163C10.1889 30.0679 10.1904 29.6189 10.2822 29.1693C10.3799 28.7116 10.5589 28.2838 10.8482 27.881C11.1199 27.503 11.4724 27.1911 11.8825 26.942C12.2926 26.6929 12.734 26.5254 13.2065 26.4396C13.6877 26.3597 14.1651 26.3744 14.6446 26.4757C15.1181 26.5852 15.5617 26.772 15.9609 27.0386L18.8246 28.9511L16.0958 15.197C16.0043 14.7345 16.0118 14.2773 16.1036 13.8278C16.21 13.3758 16.3917 12.962 16.6633 12.5839C17.0826 12.0004 17.6254 11.5845 18.2918 11.3362C18.9494 11.0822 19.6459 11.0243 20.3812 11.1627C20.4456 10.5367 20.6493 9.96731 21.0095 9.46595C21.2929 9.07143 21.6427 8.74551 22.0556 8.51042C22.4657 8.26132 22.9011 8.1021 23.3678 8.02455C23.8198 7.94942 24.2885 7.95837 24.768 8.05964C25.2446 8.14689 25.697 8.33951 26.1222 8.62349C26.6602 8.98281 27.069 9.45046 27.34 10.0206C27.9581 9.64287 28.6324 9.4729 29.3688 9.50251C30.1111 9.5239 30.7787 9.73865 31.3774 10.1385C31.9068 10.4921 32.3215 10.9515 32.6158 11.525C33.2426 11.1531 33.9169 10.9831 34.6387 11.0151C35.3577 11.0332 36.0253 11.2479 36.624 11.6478C37.0319 11.9202 37.3606 12.2492 37.642 12.6439C37.9089 13.041 38.091 13.4668 38.1825 13.9292L41.324 29.8078C41.4654 30.5225 41.5339 31.2494 41.5181 31.9686C41.505 32.7018 41.4134 33.419 41.2375 34.1286C41.0675 34.83 40.8277 35.5212 40.5299 36.1859C40.2263 36.8588 39.8618 37.4912 39.4367 38.083Z" fill="url(#paint0_linear_3_5670)"/>
</g>
<path d="M37.4531 37.2691C38.1145 36.3485 38.5818 35.3227 38.8637 34.1975C39.137 33.0664 39.1655 31.9543 38.9378 30.8413L35.8146 15.1696C35.7508 14.8473 35.5814 14.6004 35.3211 14.4265C35.0434 14.2411 34.7355 14.1692 34.4088 14.2307C34.082 14.2923 33.8271 14.4504 33.6441 14.7052C33.4669 14.9518 33.403 15.2375 33.4726 15.5516L35.0298 23.5365C35.0936 23.8589 35.0383 24.1503 34.8553 24.4051C34.6722 24.6599 34.4086 24.8123 34.0732 24.868C33.7465 24.9296 33.4472 24.8635 33.1696 24.678C32.9005 24.4984 32.7312 24.2515 32.6674 23.9292L30.6232 13.6729C30.5594 13.3505 30.3901 13.1037 30.121 12.924C29.852 12.7443 29.5528 12.6783 29.2174 12.734C28.882 12.7898 28.6271 12.9479 28.444 13.2027C28.261 13.4575 28.1911 13.7514 28.2608 14.0655L30.0717 23.1808C30.1355 23.5031 30.0802 23.7946 29.8971 24.0494C29.7082 24.3124 29.4446 24.4648 29.1151 24.5123C28.7884 24.5738 28.4745 24.5102 28.2055 24.3305C27.9278 24.1451 27.7557 23.8842 27.692 23.5618L25.4231 12.1704C25.3534 11.8563 25.19 11.6011 24.921 11.4215C24.652 11.2418 24.3468 11.184 24.0173 11.2315C23.6819 11.2872 23.4183 11.4396 23.2353 11.6944C23.0463 11.9574 22.991 12.2489 23.0607 12.563L25.3177 23.9709C25.3815 24.2932 25.3175 24.5789 25.1345 24.8337C24.9514 25.0885 24.6965 25.2466 24.3611 25.3024C24.0257 25.3581 23.7264 25.2921 23.4487 25.1066C23.1797 24.9269 23.0104 24.68 22.9466 24.3577L21.1356 15.2424C21.0719 14.9201 20.9025 14.6732 20.6335 14.4935C20.3558 14.3081 20.0566 14.242 19.7212 14.2977C19.3858 14.3535 19.1309 14.5117 18.9478 14.7664C18.7647 15.0212 18.6949 15.3151 18.7645 15.6292L21.6295 30.0338C21.7321 30.5524 21.6254 31.0406 21.3006 31.4926C21.2238 31.5995 21.1384 31.7005 21.0443 31.7958C20.9501 31.891 20.8532 31.9723 20.7303 32.0361C20.373 32.2475 19.9876 32.355 19.5772 32.3363C19.1696 32.3317 18.7922 32.2135 18.4451 31.9817L14.8872 29.6055C14.6095 29.42 14.3103 29.354 13.9808 29.4015C13.6599 29.4548 13.4051 29.613 13.2102 29.8842C13.0271 30.139 12.9632 30.4247 13.0269 30.747C13.0907 31.0693 13.26 31.3162 13.5291 31.4959L24.3676 38.7345C25.4263 39.4416 26.5597 39.9552 27.7679 40.2756C28.9906 40.5935 30.1803 40.707 31.3664 40.6112C32.5583 40.5072 33.6767 40.1838 34.7362 39.6386C35.8043 39.0992 36.709 38.3047 37.4531 37.2691Z" fill="#F7D44B"/>
<g opacity="0.019783">
<path d="M12.3693 25.7103C12.1921 25.9568 11.9431 26.1068 11.6164 26.1683C11.2869 26.2158 10.9963 26.1556 10.736 25.9817C9.79012 25.35 9.02032 24.5804 8.43803 23.6929C7.84707 22.7995 7.45749 21.8582 7.25195 20.8574C7.06099 19.8541 7.06515 18.8474 7.27624 17.8208C7.48143 16.8023 7.90742 15.8341 8.54516 14.9464C8.72822 14.6916 8.97721 14.5417 9.30393 14.4801C9.63343 14.4326 9.92401 14.4929 10.193 14.6725C10.4534 14.8464 10.614 15.0875 10.6837 15.4016C10.7388 15.7182 10.6807 15.9956 10.4977 16.2504C10.043 16.8833 9.74799 17.562 9.60678 18.2947C9.46557 19.0275 9.45838 19.7525 9.59979 20.4672C9.7412 21.182 10.0257 21.8584 10.4386 22.4991C10.8429 23.134 11.3878 23.6803 12.0646 24.1324C12.325 24.3063 12.4856 24.5474 12.5553 24.8615C12.6104 25.178 12.5523 25.4555 12.3693 25.7103Z" fill="white"/>
</g>
<g opacity="0.059349">
<path d="M14.7254 22.4309C14.5483 22.6774 14.2993 22.8274 13.9785 22.8807C13.6577 22.934 13.3671 22.8737 13.1067 22.6999C12.6468 22.3927 12.2633 22.015 11.9735 21.5782C11.681 21.1274 11.4847 20.6679 11.3935 20.1691C11.2878 19.6728 11.2956 19.1794 11.3968 18.6631C11.5008 18.1609 11.7152 17.6838 12.0281 17.2482C12.2053 17.0016 12.4543 16.8517 12.7751 16.7984C13.0959 16.745 13.3865 16.8053 13.6468 16.9792C13.9072 17.153 14.0678 17.3941 14.1288 17.7025C14.1898 18.0108 14.1318 18.2882 13.9546 18.5348C13.683 18.9129 13.5856 19.3344 13.683 19.7886C13.7658 20.2453 14.0185 20.6086 14.4177 20.8752C14.678 21.0491 14.8387 21.2902 14.8997 21.5985C14.9607 21.9068 14.9026 22.1843 14.7254 22.4309Z" fill="white"/>
</g>
<g opacity="0.180217">
<path d="M47.3322 23.5185C47.1551 23.7651 46.9061 23.9151 46.5793 23.9766C46.2498 24.0241 45.9593 23.9639 45.6989 23.79C45.4299 23.6103 45.2692 23.3692 45.1996 23.0551C45.1445 22.7386 45.2025 22.4611 45.3797 22.2146C45.8403 21.5735 46.1412 20.8865 46.2911 20.1596C46.4469 19.4244 46.4541 18.6994 46.3127 17.9847C46.1712 17.2699 45.8868 16.5934 45.4593 15.9552C45.0404 15.3227 44.4955 14.7764 43.8273 14.3301C43.5583 14.1505 43.3976 13.9094 43.328 13.5952C43.2729 13.2787 43.3309 13.0013 43.5081 12.7547C43.6911 12.4999 43.9401 12.3499 44.2669 12.2884C44.5964 12.2409 44.8869 12.3012 45.1559 12.4808C46.0932 13.1067 46.863 13.8763 47.4452 14.7638C48.0362 15.6572 48.4258 16.5985 48.6313 17.5993C48.8223 18.6026 48.8181 19.6093 48.607 20.636C48.4018 21.6544 47.9759 22.6227 47.3322 23.5185Z" fill="white"/>
</g>
<g opacity="0.540651">
<path d="M43.8552 21.2085C43.678 21.4551 43.4291 21.605 43.1082 21.6584C42.7874 21.7117 42.4968 21.6514 42.2365 21.4775C41.9762 21.3037 41.8155 21.0626 41.7545 20.7543C41.6935 20.4459 41.7516 20.1685 41.9287 19.9219C42.2004 19.5438 42.2977 19.1223 42.2003 18.6681C42.1175 18.2114 41.8649 17.8481 41.4657 17.5815C41.2053 17.4076 41.0447 17.1665 40.9837 16.8582C40.9227 16.5499 40.9807 16.2724 41.1579 16.0258C41.335 15.7793 41.584 15.6293 41.9049 15.576C42.2257 15.5227 42.5163 15.583 42.7766 15.7568C43.2539 16.0756 43.6287 16.4475 43.9185 16.8843C44.2023 17.3293 44.3987 17.7888 44.4898 18.2876C44.5955 18.7839 44.5877 19.2773 44.4924 19.7853C44.3884 20.2876 44.18 20.7565 43.8552 21.2085Z" fill="white"/>
<path d="M43.8552 21.2085C43.678 21.4551 43.4291 21.605 43.1082 21.6584C42.7874 21.7117 42.4968 21.6514 42.2365 21.4775C41.9762 21.3037 41.8155 21.0626 41.7545 20.7543C41.6935 20.4459 41.7516 20.1685 41.9287 19.9219C42.2004 19.5438 42.2977 19.1223 42.2003 18.6681C42.1175 18.2114 41.8649 17.8481 41.4657 17.5815C41.2053 17.4076 41.0447 17.1665 40.9837 16.8582C40.9227 16.5499 40.9807 16.2724 41.1579 16.0258C41.335 15.7793 41.584 15.6293 41.9049 15.576C42.2257 15.5227 42.5163 15.583 42.7766 15.7568C43.2539 16.0756 43.6287 16.4475 43.9185 16.8843C44.2023 17.3293 44.3987 17.7888 44.4898 18.2876C44.5955 18.7839 44.5877 19.2773 44.4924 19.7853C44.3884 20.2876 44.18 20.7565 43.8552 21.2085Z" fill="white"/>
</g>
<defs>
<filter id="filter0_f_3_5670" x="-6.28781" y="-8.52509" width="64.3081" height="67.4839" filterUnits="userSpaceOnUse" color-interpolation-filters="sRGB">
<feFlood flood-opacity="0" result="BackgroundImageFix"/>
<feBlend mode="normal" in="SourceGraphic" in2="BackgroundImageFix" result="shape"/>
<feGaussianBlur stdDeviation="8.25" result="effect1_foregroundBlur_3_5670"/>
</filter>
<linearGradient id="paint0_linear_3_5670" x1="14.4371" y1="15.6825" x2="40.4841" y2="34.3961" gradientUnits="userSpaceOnUse">
<stop stop-color="white" stop-opacity="0.097"/>
<stop offset="0.5" stop-color="#808080" stop-opacity="0.152"/>
<stop offset="1" stop-opacity="0.208"/>
</linearGradient>
</defs>
</svg>
